<svg xmlns="http://www.w3.org/2000/svg" xmlns:xlink="http://www.w3.org/1999/xlink" viewBox="0 0 64 92" fill="#fff" fill-rule="evenodd" stroke="#000" stroke-linecap="round" stroke-linejoin="round"><use xlink:href="#Q" x=".5" y=".5"/><defs><linearGradient id="A" x1="84.75%" y1="111.40%" x2="58.25%" y2="64.58%"><stop offset="0%" stop-color="#fb7655"/><stop offset="0%" stop-color="#fb7655"/><stop offset="41%" stop-color="#e42b1e"/><stop offset="99%" stop-color="#900"/><stop offset="100%" stop-color="#900"/></linearGradient><linearGradient id="B" x1="116.67%" y1="60.91%" x2="1.77%" y2="19.31%"><stop offset="0%" stop-color="#871101"/><stop offset="0%" stop-color="#871101"/><stop offset="99%" stop-color="#911209"/><stop offset="100%" stop-color="#911209"/></linearGradient><linearGradient id="C" x1="75.77%" y1="219.28%" x2="38.98%" y2="7.77%"><stop offset="0%" stop-color="#871101"/><stop offset="0%" stop-color="#871101"/><stop offset="99%" stop-color="#911209"/><stop offset="100%" stop-color="#911209"/></linearGradient><linearGradient id="D" x1="50.01%" y1="7.25%" x2="66.48%" y2="79.15%"><stop offset="0%" stop-color="#fff"/><stop offset="0%" stop-color="#fff"/><stop offset="23%" stop-color="#e57252"/><stop offset="46%" stop-color="#de3b20"/><stop offset="99%" stop-color="#a60003"/><stop offset="100%" stop-color="#a60003"/></linearGradient><linearGradient id="E" x1="46.17%" y1="16.35%" x2="49.93%" y2="83.06%"><stop offset="0%" stop-color="#fff"/><stop offset="0%" stop-color="#fff"/><stop offset="23%" stop-color="#e4714e"/><stop offset="56%" stop-color="#be1a0d"/><stop offset="99%" stop-color="#a80d00"/><stop offset="100%" stop-color="#a80d00"/></linearGradient><linearGradient id="F" x1="36.97%" y1="15.61%" x2="49.53%" y2="92.48%"><stop offset="0%" stop-color="#fff"/><stop offset="0%" stop-color="#fff"/><stop offset="18%" stop-color="#e46342"/><stop offset="40%" stop-color="#c82410"/><stop offset="99%" stop-color="#a80d00"/><stop offset="100%" stop-color="#a80d00"/></linearGradient><linearGradient id="G" x1="13.59%" y1="58.35%" x2="85.76%" y2="-46.72%"><stop offset="0%" stop-color="#fff"/><stop offset="0%" stop-color="#fff"/><stop offset="54%" stop-color="#c81f11"/><stop offset="99%" stop-color="#bf0905"/><stop offset="100%" stop-color="#bf0905"/></linearGradient><linearGradient id="H" x1="27.62%" y1="21.13%" x2="50.74%" y2="79.04%"><stop offset="0%" stop-color="#fff"/><stop offset="0%" stop-color="#fff"/><stop offset="31%" stop-color="#de4024"/><stop offset="99%" stop-color="#bf190b"/><stop offset="100%" stop-color="#bf190b"/></linearGradient><linearGradient id="I" x1="-20.68%" y1="122.28%" x2="104.24%" y2="-6.34%"><stop offset="0%" stop-color="#bd0012"/><stop offset="0%" stop-color="#bd0012"/><stop offset="7%" stop-color="#fff"/><stop offset="17%" stop-color="#fff"/><stop offset="27%" stop-color="#c82f1c"/><stop offset="33%" stop-color="#820c01"/><stop offset="46%" stop-color="#a31601"/><stop offset="72%" stop-color="#b31301"/><stop offset="99%" stop-color="#e82609"/><stop offset="100%" stop-color="#e82609"/></linearGradient><linearGradient id="J" x1="58.79%" y1="65.20%" x2="11.96%" y2="50.13%"><stop offset="0%" stop-color="#8c0c01"/><stop offset="0%" stop-color="#8c0c01"/><stop offset="54%" stop-color="#990c00"/><stop offset="99%" stop-color="#a80d0e"/><stop offset="100%" stop-color="#a80d0e"/></linearGradient><linearGradient id="K" x1="79.31%" y1="62.75%" x2="23.09%" y2="17.89%"><stop offset="0%" stop-color="#7e110b"/><stop offset="0%" stop-color="#7e110b"/><stop offset="99%" stop-color="#9e0c00"/><stop offset="100%" stop-color="#9e0c00"/></linearGradient><linearGradient id="L" x1="92.88%" y1="74.11%" x2="59.84%" y2="39.69%"><stop offset="0%" stop-color="#79130d"/><stop offset="0%" stop-color="#79130d"/><stop offset="99%" stop-color="#9e120b"/><stop offset="100%" stop-color="#9e120b"/></linearGradient><radialGradient id="M" cx="32%" cy="40%" r="91%" fx="32%" fy="40%"><stop offset="0%" stop-color="#a80d00"/><stop offset="0%" stop-color="#a80d00"/><stop offset="99%" stop-color="#7e0e08"/><stop offset="100%" stop-color="#7e0e08"/></radialGradient><radialGradient id="N" cx="14%" cy="41%" r="99%" fx="14%" fy="41%"><stop offset="0%" stop-color="#a30c00"/><stop offset="0%" stop-color="#a30c00"/><stop offset="99%" stop-color="#800e08"/><stop offset="100%" stop-color="#800e08"/></radialGradient><linearGradient id="O" x1="56.57%" y1="101.70%" x2="3.11%" y2="11.98%"><stop offset="0%" stop-color="#8b2114"/><stop offset="0%" stop-color="#8b2114"/><stop offset="43%" stop-color="#9e100a"/><stop offset="99%" stop-color="#b3100c"/><stop offset="100%" stop-color="#b3100c"/></linearGradient><linearGradient id="P" x1="30.87%" y1="35.64%" x2="92.49%" y2="100.73%"><stop offset="0%" stop-color="#b31000"/><stop offset="0%" stop-color="#b31000"/><stop offset="44%" stop-color="#910f08"/><stop offset="99%" stop-color="#791c12"/><stop offset="100%" stop-color="#791c12"/></linearGradient></defs><symbol id="Q" overflow="visible"><g stroke="none"><path d="M47.638 40.47l-35.106 20.85 45.457-3.085 3.5-45.838z" fill="url(#A)"/><path d="M54.156 31.236L43.51 45.29l14.55 12.9z" fill="url(#B)"/><path d="M29.492 55.956l-16.808 5.307 45.435-3.057z" fill="url(#C)"/><path d="M19.875 37.84L4.14 41.205l8.584 20.058z" fill="url(#D)"/><path d="M36.932 19.595L18.103 37.24l25.408 8.122z" fill="url(#E)"/><path d="M42.198 5.422l-4.956 16.023 22.755-1.5z" fill="url(#F)"/><path d="M41.205 6.02l-6.6-5.86 17.07.078z" fill="url(#G)"/><path d="M4.385 41.065L.838 31.537 0 49.065z" fill="url(#H)"/><path d="M.602 31.236L4.17 41.36l15.508-3.476L37.384 21.43l4.997-15.87L34.51 0 21.135 5.006 8.448 16.83c-.292.15-5.4 9.807-7.852 14.41z"/><path d="M13.134 13.05C22.267 3.995 34.042-1.356 38.56 3.203s-.273 15.642-9.404 24.69S8.395 42.592 3.88 38.033s.124-15.93 9.258-24.983z" fill="url(#I)"/><path d="M12.724 61.257l7.095-23.5L43.38 45.33c-8.52 7.988-17.994 14.738-30.656 15.927z" fill="url(#J)"/><path d="M37.415 21.383l6.052 23.96c7.12-7.48 13.5-15.527 16.63-25.48l-22.68 1.52z" fill="url(#K)"/><path d="M60.034 19.986c2.42-7.306 2.98-17.783-8.435-19.732L42.232 5.43l17.802 14.555z" fill="url(#L)"/><path d="M0 48.957C.335 61.014 9.03 61.194 12.74 61.3L4.18 41.307 0 48.957z" fill="#9e1209"/><path d="M37.45 21.414l16.712 10.24c.348.196 4.748-7.427 5.75-11.73l-22.463 1.5z" fill="url(#M)"/><path d="M19.81 37.757l9.484 18.298c5.608-3.04 10-6.747 14.022-10.716L19.81 37.757z" fill="url(#N)"/><path d="M4.143 41.338L2.8 57.34c2.536 3.463 6.02 3.764 9.683 3.495-2.647-6.59-7.936-19.763-8.34-19.496z" fill="url(#O)"/><path d="M42.176 5.462l18.838 2.644c-1.005-4.258-4.097-7.014-9.357-7.87l-9.48 5.226z" fill="url(#P)"/><path d="M18.522 84.988h-5.02l-3.022-4.52-2.917-3.93H5.658v5.913c0 .307.048.578.145.815.096.228.302.403.618.526.158.06.434.118.828.17l1 .092v.933H.362v-.933l.907-.092c.403-.044.683-.1.84-.17a1.1 1.1 0 0 0 .565-.499c.123-.22.184-.5.184-.84V68.97c0-.307-.044-.578-.13-.815s-.293-.416-.618-.54c-.22-.08-.504-.15-.854-.2-.295-.062-.594-.106-.894-.13v-.933H8.97c.748-.004 1.493.08 2.22.25a5.87 5.87 0 0 1 1.879.775 3.93 3.93 0 0 1 1.301 1.38c.324.56.486 1.24.486 2.037 0 .718-.1 1.353-.33 1.905s-.543 1.03-.972 1.432a5.91 5.91 0 0 1-1.419.986 11.16 11.16 0 0 1-1.826.696l2.296 3.074 2.247 3.035c.385.526.73.915 1.038 1.17.315.245.626.447.933.604a3.23 3.23 0 0 0 .854.263c.282.054.567.09.854.105v.943m-6.9-13.9c0-1.13-.324-2.024-.972-2.68-.648-.666-1.564-1-2.746-1H5.658v8.002h1.72c1.2 0 2.216-.385 3.022-1.156.806-.78 1.2-1.835 1.2-3.167m21.17 13.667l-4.218.3-.197-.184v-1.682h-.08l-.7.7a5.11 5.11 0 0 1-.907.67c-.394.237-.775.416-1.143.54s-.9.184-1.564.184c-1.148 0-2.024-.372-2.628-1.117-.596-.753-.894-1.844-.894-3.272v-6.185c0-.315-.06-.578-.184-.788-.114-.22-.285-.407-.512-.565-.158-.105-.355-.18-.6-.223a4.99 4.99 0 0 0-.749-.105v-.854l4.323-.315.197.184v9c0 .937.2 1.643.63 2.116s.924.7 1.5.7c.482 0 .9-.074 1.288-.223a3.51 3.51 0 0 0 .946-.526 4.37 4.37 0 0 0 .618-.578c.184-.2.324-.403.42-.578v-7.345a1.49 1.49 0 0 0-.184-.762 1.7 1.7 0 0 0-.512-.578c-.158-.105-.394-.166-.7-.184l-1.038-.066v-.854l4.704-.315.197.184v10.3c0 .298.06.552.184.762s.293.4.512.54a1.54 1.54 0 0 0 .565.197l.723.053v.854m14.782-6.25c0 1.945-.613 3.578-1.84 4.9s-2.65 1.984-4.27 1.984a6.93 6.93 0 0 1-2.102-.329c-.677-.216-1.325-.51-1.932-.88l-.972 1.5-.815-.184.092-2.34.026-2.64V67.706c0-.298-.07-.596-.2-.894s-.302-.512-.512-.644c-.166-.114-.447-.197-.84-.25l-.933-.118v-.84l4.757-.302.184.197v8.54l.092.026c.543-.578 1.134-1.012 1.774-1.3.648-.3 1.283-.434 1.905-.434 1.594 0 2.926.63 3.995 1.892s1.603 2.904 1.603 4.928m-2.746.092c0-.648-.07-1.3-.2-1.984s-.36-1.26-.657-1.76c-.298-.508-.688-.92-1.17-1.235s-1.06-.473-1.734-.473c-.613 0-1.152.123-1.616.368-.456.237-.867.56-1.235.972v7.542c.053.2.153.456.302.736.158.28.368.548.63.802a3.49 3.49 0 0 0 .894.604c.333.15.74.223 1.222.223 1.07 0 1.932-.517 2.6-1.55s.985-2.448.986-4.244m3.678 10.62c0-.438.118-.797.355-1.077a1.17 1.17 0 0 1 .907-.407c.28 0 .52.053.723.158s.38.24.54.407a2.9 2.9 0 0 1 .42.54l.355.565c.438-.237.96-.854 1.564-1.853.613-1 1.056-1.875 1.327-2.628l-2.26-5.57-2.116-5.085c-.166-.403-.447-.714-.84-.933a3.41 3.41 0 0 0-1.183-.434v-.867h5.913v.92c-.263.01-.578.066-.946.17-.368.096-.552.232-.552.407l.066.197.13.38 3.114 7.674 1.222-2.904 1.432-3.56.263-.683c.114-.298.17-.552.17-.762 0-.228-.2-.438-.604-.63-.394-.2-.77-.324-1.13-.368v-.84h4.8v.815c-.263.044-.6.197-1.038.46a2.31 2.31 0 0 0-.96 1.1l-2.796 6.594-1.84 4.4c-.552 1.226-1.047 2.18-1.485 2.865-.43.692-.85 1.235-1.26 1.63-.403.368-.77.613-1.104.736a2.67 2.67 0 0 1-1.012.197c-.683 0-1.222-.162-1.616-.486-.385-.324-.578-.696-.578-1.117" fill="#000" fill-rule="nonzero"/></g></symbol></svg>